<mxfile host="app.diagrams.net" modified="2021-10-09T07:02:43.815Z" agent="5.0 (Windows NT 10.0; Win64; x64) AppleWebKit/537.36 (KHTML, like Gecko) Chrome/94.0.4606.81 Safari/537.36" etag="XsC5G7XD5k_dA_UXAstq" version="15.2.7" type="github">
  <diagram id="5wvZFfu_KO3nUvRy2YKM" name="Page-1">
    <mxGraphModel dx="1330" dy="627" grid="1" gridSize="10" guides="1" tooltips="1" connect="1" arrows="1" fold="1" page="1" pageScale="1" pageWidth="827" pageHeight="1169" math="0" shadow="0">
      <root>
        <mxCell id="0" />
        <mxCell id="1" parent="0" />
      </root>
    </mxGraphModel>
  </diagram>
</mxfile>
